<svg xmlns="http://www.w3.org/2000/svg" viewBox="0 0 100 100">
  <defs>
    <radialGradient id="bg" cx="50%" cy="50%" r="50%">
      <stop offset="0%" stop-color="#2a0a4e"/>
      <stop offset="100%" stop-color="#0a0015"/>
    </radialGradient>
    <filter id="glow" x="-25%" y="-25%" width="150%" height="150%">
      <feGaussianBlur in="SourceGraphic" stdDeviation="1.8" result="blur"/>
      <feMerge><feMergeNode in="blur"/><feMergeNode in="SourceGraphic"/></feMerge>
    </filter>
  </defs>
  <!-- Background circle -->
  <circle cx="50" cy="50" r="50" fill="url(#bg)"/>
  <!-- 6 petals — each rotated 60° -->
  <g transform="translate(50,50)" filter="url(#glow)">
    <!-- 0° violet -->
    <path d="M0 0 C-4.2 -9 -5.1 -31.2 0 -43 C5.1 -31.2 4.2 -9 0 0 Z" fill="#c084fc"/>
    <!-- 60° indigo -->
    <path d="M0 0 C-4.2 -9 -5.1 -31.2 0 -43 C5.1 -31.2 4.2 -9 0 0 Z" fill="#818cf8" transform="rotate(60)"/>
    <!-- 120° blue -->
    <path d="M0 0 C-4.2 -9 -5.1 -31.2 0 -43 C5.1 -31.2 4.2 -9 0 0 Z" fill="#60a5fa" transform="rotate(120)"/>
    <!-- 180° cyan -->
    <path d="M0 0 C-4.2 -9 -5.1 -31.2 0 -43 C5.1 -31.2 4.2 -9 0 0 Z" fill="#22d3ee" transform="rotate(180)"/>
    <!-- 240° teal -->
    <path d="M0 0 C-4.2 -9 -5.1 -31.2 0 -43 C5.1 -31.2 4.2 -9 0 0 Z" fill="#2dd4bf" transform="rotate(240)"/>
    <!-- 300° fuchsia -->
    <path d="M0 0 C-4.2 -9 -5.1 -31.2 0 -43 C5.1 -31.2 4.2 -9 0 0 Z" fill="#e879f9" transform="rotate(300)"/>
  </g>
  <!-- Center white dot -->
  <circle cx="50" cy="50" r="4.5" fill="white"/>
</svg>
